Motion_pu02
version=1
nRows=8
nColumns=43
inDegrees=yes
endheader
time	pelvis_tilt	pelvis_list	pelvis_rotation	pelvis_tx	pelvis_ty	pelvis_tz	hip_flexion_r	hip_adduction_r	hip_rotation_r	knee_angle_r	ankle_angle_r	subtalar_angle_r	mtp_angle_r	hip_flexion_l	hip_adduction_l	hip_rotation_l	knee_angle_l	ankle_angle_l	subtalar_angle_l	mtp_angle_l	lumbar_extension	lumbar_bending	lumbar_rotation	neck_flexion	neck_lateral_bending	neck_rotation	arm_flex_r	arm_add_r	arm_rot_r	elbow_flex_r	pro_sup_r	wrist_flex_r	wrist_dev_r	hand_finger_flex_r	arm_flex_l	arm_add_l	arm_rot_l	elbow_flex_l	pro_sup_l	wrist_flex_l	wrist_dev_l	hand_finger_flex_l
      2.48000000	     -0.37009281	     13.45155667	    -90.60188143	      0.00067956	      0.91402464	      1.28752278	      8.40777256	     -3.42921140	     -9.71113244	    -18.07629155	     19.78094730	      5.13908545	      3.36345480	      4.52467508	     -2.98557512	    -12.24680586	    -12.71077314	     23.83396976	      7.75363896	     -4.14915330	     28.54645413	     -2.65347550	     -9.91974975	      7.99235327	     12.16544011	     25.40878593	    -38.09992610	   -130.30946478	   -140.19279540	     77.87463923	    102.29393182	      8.21869826	     -5.51630307	     64.68171444	    176.03603067	    -40.87114947	     75.73238141	     74.54190526	     99.34361077	      5.81646502	     18.75698669	     88.22957550
      2.48250000	     -0.32760180	     13.50920040	    -90.57666984	      0.00073592	      0.91400144	      1.28665884	      8.38921005	     -3.43848647	     -9.64914608	    -17.79176416	     19.70866476	      5.04583202	      3.27065807	      4.67045486	     -2.95149422	    -12.24308351	    -12.76989920	     23.74001221	      7.81638879	     -4.30270118	     28.48495220	     -2.72839715	     -9.88262998	      9.16078420	     12.47939734	     25.71234147	    -37.90616890	   -130.10662674	   -140.04406372	     77.99588009	    102.38817198	      8.06814674	     -5.54608511	     64.20281834	    176.03806270	    -40.93622641	     75.54195807	     74.76164542	     99.51082034	      5.35210765	     18.59174384	     87.91713689
      2.48500000	     -0.32952682	     13.50430326	    -90.57691607	      0.00083471	      0.91402358	      1.28590792	      8.41005057	     -3.44133451	     -9.65030745	    -17.77035061	     19.71131706	      5.04335851	      3.26935304	      4.70358020	     -2.94421755	    -12.24214848	    -12.74860170	     23.74251190	      7.81763892	     -4.30495004	     28.43421693	     -2.71432818	     -9.87476199	      9.16169495	     12.48021020	     25.71487247	    -37.91382544	   -130.08630478	   -140.04234501	     78.00893111	    102.38761351	      8.06686140	     -5.54802169	     64.19495312	    176.02162857	    -40.95859878	     75.55177829	     74.76293743	     99.51377520	      5.34654854	     18.58941247	     87.91174154
      2.48750000	     -0.31761535	     13.56906133	    -90.62484797	      0.00081455	      0.91409202	      1.28505622	      8.43986785	     -3.41741644	     -9.65015181	    -17.50613464	     19.75498811	      4.99310236	      3.24634276	      4.77178627	     -2.92443968	    -12.22043676	    -12.62432459	     23.77296475	      7.82485276	     -4.34470783	     28.42623308	     -2.69394937	     -9.78243622	      9.36842283	     12.52205125	     25.79869473	    -37.86988927	   -129.91783226	   -140.06393292	     78.34819065	    102.37640584	      8.01780073	     -5.59213439	     64.03705519	    176.02450855	    -41.09206626	     75.49518690	     75.01410329	     99.54958697	      5.18953811	     18.50905909	     87.79437844
      2.49000000	     -0.31588807	     13.56459908	    -90.62115348	      0.00084914	      0.91412596	      1.28432513	      8.45070935	     -3.41164767	     -9.64805714	    -17.49042973	     19.75598344	      4.99054867	      3.24477262	      4.80643876	     -2.91968096	    -12.22064230	    -12.60717447	     23.77352624	      7.82554680	     -4.34727362	     28.38193516	     -2.69443763	     -9.77190834	      9.38611223	     12.52665722	     25.80435062	    -37.89323348	   -129.89541582	   -140.05218828	     78.33346961	    102.38119981	      8.01531949	     -5.59022987	     64.02665962	    176.01093414	    -41.12367639	     75.49795758	     75.01301563	     99.55366228	      5.17941956	     18.50627341	     87.78566487
      2.49250000	     -0.31133769	     13.55995904	    -90.62376845	      0.00090230	      0.91416176	      1.28357434	      8.47571965	     -3.40563426	     -9.64461388	    -17.45233060	     19.76005524	      4.98581991	      3.24265559	      4.84223982	     -2.91054725	    -12.22056801	    -12.58555636	     23.77462396	      7.82655054	     -4.35079401	     28.33310374	     -2.69341895	     -9.76697689	      9.42283990	     12.53608777	     25.81557955	    -37.90965687	   -129.87021240	   -140.04853373	     78.34089251	    102.38486531	      8.00911399	     -5.59064842	     64.01070119	    175.99132644	    -41.16971933	     75.49625311	     75.02587283	     99.55853024	      5.16226300	     18.49992278	     87.77152589
      2.49500000	     -0.30284602	     13.55938545	    -90.62364828	      0.00088643	      0.91420794	      1.28270015	      8.50405100	     -3.40000037	     -9.63698542	    -17.37042333	     19.77136154	      4.97419750	      3.23874432	      4.90693985	     -2.89074737	    -12.21975088	    -12.54305524	     23.77732860	      7.82834809	     -4.35737923	     28.27512967	     -2.68327988	     -9.74781760	      9.51321938	     12.55866914	     25.84287576	    -37.92935551	   -129.83180432	   -140.05441139	     78.39319984	    102.38877658	      7.99315303	     -5.59531601	     63.97776451	    175.97180477	    -41.25480776	     75.47577961	     75.07887479	     99.56633691	      5.12341811	     18.48313704	     87.74116714
      2.49750000	     -0.25278617	     13.67452625	    -90.66710127	      0.00099359	      0.91417379	      1.28189820	      8.47032763	     -3.35694655	     -9.20180465	    -16.88464689	     19.67247519	      3.98268878	      2.75935187	      5.00289078	     -2.82200147	    -12.18177316	    -12.43865149	     23.80553118	      7.64855835	     -5.05061166	     28.30367843	     -2.72532616	     -9.38062909	     10.41261868	     13.05580286	     26.38715742	    -37.32218340	   -129.34454350	   -139.43670406	     78.78960507	    102.74728671	      7.55085471	     -5.47692514	     60.97068090	    175.52733854	    -41.53101588	     75.07456574	     75.76917470	    100.74385392	      2.04054838	     17.55856614	     85.10986000
